<?xml version="1.0" encoding="utf-8"?>
<!-- Generator: Adobe Illustrator 23.0.1, SVG Export Plug-In . SVG Version: 6.00 Build 0)  -->
<svg version="1.1" id="Capa_1" xmlns="http://www.w3.org/2000/svg" xmlns:xlink="http://www.w3.org/1999/xlink" x="0px" y="0px"
	 viewBox="0 0 150 150" style="enable-background:new 0 0 150 150;" xml:space="preserve">
<style type="text/css">
	.st0{fill-rule:evenodd;clip-rule:evenodd;fill:#C7A68B;}
</style>
<g>
	<g>
		<path class="st0" d="M39.4,140.6c0,4.4,3.6,8,8,8l55.2,0c4.4,0,8-3.6,8-8l0-87.9c0-3.9,0-4.1-2.3-8.5c-1.3-1.4-3-8.6-6-7.6
			c0.7-7.8-6.4-13.2-13.8-12.1c-1.1-3.9,3.2-23.5-4.3-22.9c-4.4,1-21.5-3.4-19.9,5.5C50.6,6.5,53.9,7,53.5,19.2
			c-0.3,3.5,9.1,1.3,10.8,1.9v3.4c-8.1-1.2-17.6,2.6-16.7,12.1c-3.9-0.5-8.8,12.5-8.3,15.8C39.4,52.5,39.4,140.6,39.4,140.6z
			 M64.2,17.3h-6.9v-6.4h6.9V17.3z M84.7,24.5H68.2c0.4-0.9-0.8-18.9,0.5-19.1C91.2,5.8,83.3,1.2,84.7,24.5z M59.1,66.2
			C58.9,54.8,72,54.8,80.2,55.4c5.9,0,10.8,4.8,10.8,10.8v53c0.2,11.4-12.9,11.3-21.1,10.8c-5.9,0-10.8-4.8-10.8-10.8V66.2z"/>
	</g>
	<g>
		<path class="st0" d="M50,20.6c-1.3-0.4-2.3-0.1-3.2,0.2l-0.1,0c-1.4,0.4-2.7,0.8-4.3-0.4l-0.1-0.1c-0.2-0.2-0.3-0.4-0.4-0.7
			c0-0.2,0-0.5,0.2-0.7l0-0.1c0.2-0.2,0.5-0.4,0.8-0.4c0.3,0,0.6,0,0.8,0.2c0.3,0.2,0.7,0.3,1,0.3c0.4,0,0.7-0.1,1.2-0.3l0,0
			c1.2-0.4,2.6-0.8,4.6-0.2l0,0c0.3,0.1,0.5,0.3,0.6,0.5c0.1,0.2,0.2,0.5,0.1,0.8l0,0c-0.1,0.3-0.3,0.5-0.6,0.6
			C50.6,20.6,50.3,20.7,50,20.6L50,20.6z"/>
		<path class="st0" d="M49.8,10.2c-1.3-0.4-2.3-0.1-3.2,0.2l0,0c-1.4,0.4-2.7,0.8-4.3-0.4l-0.1-0.1c-0.2-0.2-0.3-0.4-0.4-0.7
			c0-0.2,0-0.5,0.2-0.7l0-0.1c0.2-0.2,0.5-0.4,0.8-0.4c0.3,0,0.6,0,0.8,0.2c0.3,0.2,0.7,0.3,1,0.3c0.4,0,0.7-0.1,1.2-0.3l0,0
			c1.2-0.4,2.6-0.8,4.6-0.2l0.1,0c0.3,0.1,0.5,0.3,0.6,0.5c0.1,0.2,0.2,0.5,0.1,0.8l0,0c-0.1,0.3-0.3,0.5-0.6,0.6
			C50.4,10.2,50.1,10.3,49.8,10.2L49.8,10.2z"/>
		<path class="st0" d="M49.8,15.4c-1.3-0.4-2.3-0.1-3.2,0.2l0,0c-1.4,0.4-2.7,0.8-4.3-0.4l-0.1-0.1c-0.2-0.2-0.3-0.4-0.4-0.7
			c0-0.2,0-0.5,0.2-0.7l0-0.1c0.2-0.2,0.5-0.4,0.8-0.4c0.3,0,0.6,0,0.8,0.2c0.3,0.2,0.7,0.3,1,0.3c0.4,0,0.7-0.1,1.1-0.3l0,0
			c1.2-0.4,2.6-0.8,4.6-0.2l0.1,0c0.3,0.1,0.5,0.3,0.6,0.5c0.1,0.2,0.2,0.5,0.1,0.8l0,0c-0.1,0.3-0.3,0.5-0.6,0.6
			C50.4,15.4,50.1,15.5,49.8,15.4L49.8,15.4z"/>
	</g>
</g>
</svg>
