<?xml version="1.0" encoding="utf-8"?>
<!-- Generator: Adobe Illustrator 23.0.1, SVG Export Plug-In . SVG Version: 6.00 Build 0)  -->
<svg version="1.1" id="Capa_1" xmlns="http://www.w3.org/2000/svg" xmlns:xlink="http://www.w3.org/1999/xlink" x="0px" y="0px"
	 viewBox="0 0 150 150" style="enable-background:new 0 0 150 150;" xml:space="preserve">
<style type="text/css">
	.st0{fill:#ADADAD;}
	.st1{fill:#FFFFFF;}
	.st2{fill-rule:evenodd;clip-rule:evenodd;fill:#C7A68B;}
</style>
<path d="M-431.2,101.3c-2.7,0-5.4,0-8.2,0c-0.2-0.1-0.5-0.2-0.7-0.2c-4.3-0.2-8.5-0.5-12.8-0.7c-6.2-0.4-12.3-1.3-18.4-2.6
	c-3.6-0.8-7.1-1.8-10.3-3.7c-1.9-1.1-3-2.5-3-5c0.1-21.9,0.1-43.8,0-65.6c0-1.9,0.6-3.3,2.2-4.2c2-1.1,4-2.3,6.1-2.8
	c4.3-1.2,8.6-2.1,12.9-2.8c4.1-0.7,8.2-0.9,12.3-1.4c1.4-0.1,2.7-0.3,4.1-0.4c-0.1-0.3-0.1-0.3-0.1-0.4c-0.1-0.2-0.2-0.3-0.3-0.5
	c-3.1-4.4-4.9-9.2-5-14.7c-0.1-5.2,1.2-10.1,3-14.8c1.9-5,4.2-9.8,6.2-14.7c1.4-3.5,2.7-7.1,2.8-10.9c0-1,0-2.1,0-3.1
	c0.1,0,0.2-0.1,0.3-0.1c2.2,2.1,4.4,4.2,6.5,6.4c7.2,7.8,13,16.5,15.3,27.1c1.8,7.8,0.8,15.2-3.3,22.1c-0.7,1.2-1.5,2.3-2.3,3.5
	c1,0.1,1.8,0.3,2.7,0.4c7.1,0.4,14.2,1.2,21.2,2.8c3.7,0.8,7.4,1.8,10.7,3.6c2.1,1.1,3.3,2.6,3.3,5.3c-0.1,14.4-0.1,28.7-0.1,43.1
	c0,7.7,0,15.4,0,23c0,1.2-0.3,2.3-1.3,2.9c-1.5,1-2.9,2.1-4.6,2.7c-3.3,1.1-6.7,2-10.1,2.8c-7.3,1.7-14.8,2.3-22.3,2.6
	C-426.6,101-428.9,101.1-431.2,101.3z"/>
<path class="st0" d="M-441.6,16.9c0,0.1-0.1,0.1-0.1,0.2c-0.8-0.7-1.6-1.4-2.2-2.2c-0.6-0.7-1.2-0.9-2.1-0.8
	c-5.2,0.5-10.5,0.8-15.7,1.4c-5.2,0.6-10.3,1.6-15.3,3.4c-1.5,0.5-2.9,1.2-4.3,2.1c-1.2,0.8-1.1,1.9,0.1,2.6
	c0.9,0.6,1.8,1.1,2.9,1.4c3.4,1,6.8,2.2,10.3,2.8c6.1,1.1,12.3,1.9,18.5,2.5c4.6,0.4,9.2,0.5,13.8,0.4c5.8-0.1,11.6-0.4,17.5-0.7
	c8.4-0.5,16.7-1.7,24.8-4.4c1.5-0.5,2.8-1.2,4.2-2c1.3-0.7,1.4-1.6,0.2-2.6c-0.3-0.3-0.6-0.5-1-0.6c-4.1-2.2-8.5-3.3-13-4
	c-6.2-1-12.5-1.6-18.8-2.2c-2-0.2-4.2-0.8-5.7,1.3c0,0-0.1-0.1-0.2-0.1c1.8-2.6,3-5.5,3.4-8.6c0.5-4.7-0.5-9.1-2.4-13.3
	c-2.2-4.7-4.8-9.3-7.3-13.9c-0.2-0.3-0.5-0.5-0.7-0.8c-0.2,0.2-0.3,0.3-0.3,0.3c-0.8,4-2.5,7.6-4.1,11.3c-1.8,3.9-3.6,7.7-5,11.7
	c-1.2,3.3-1.3,6.8,0.1,10.2C-443.4,13.9-442.4,15.4-441.6,16.9z"/>
<path class="st1" d="M-431.2,101.3c2.3-0.1,4.6-0.3,6.9-0.4c7.5-0.3,15-1,22.3-2.6c3.4-0.8,6.8-1.7,10.1-2.8
	c1.6-0.6,3.1-1.7,4.6-2.7c1-0.7,1.3-1.7,1.3-2.9c0-7.7,0-15.4,0-23c0-14.4-0.1-28.7,0.1-43.1c0-2.7-1.2-4.1-3.3-5.3
	c-3.3-1.8-7-2.8-10.7-3.6c-7-1.5-14.1-2.4-21.2-2.8c-0.9,0-1.7-0.2-2.7-0.4c0.8-1.2,1.6-2.4,2.3-3.5c4.2-6.9,5.1-14.3,3.3-22.1
	c-2.4-10.6-8.1-19.3-15.3-27.1c-2.1-2.2-4.3-4.3-6.5-6.4c-0.1,0-0.2,0.1-0.3,0.1c0,1,0,2.1,0,3.1c-0.1,3.8-1.4,7.4-2.8,10.9
	c-2,4.9-4.3,9.7-6.2,14.7c-1.8,4.7-3.1,9.6-3,14.8c0.1,5.4,1.9,10.3,5,14.7c0.1,0.2,0.2,0.3,0.3,0.5c0,0.1,0,0.1,0.1,0.4
	c-1.4,0.1-2.8,0.2-4.1,0.4c-4.1,0.4-8.2,0.7-12.3,1.4c-4.4,0.7-8.7,1.7-12.9,2.8c-2.1,0.6-4.2,1.8-6.1,2.8c-1.6,0.9-2.2,2.4-2.2,4.2
	c0,21.9,0.1,43.8,0,65.6c0,2.4,1.1,3.9,3,5c3.2,1.9,6.7,2.8,10.3,3.7c6,1.4,12.2,2.3,18.4,2.6c4.3,0.2,8.5,0.5,12.8,0.7
	c0.2,0,0.5,0.1,0.7,0.2c-15.3,0-30.6,0-45.8,0c0-49.8,0-99.7,0-149.5c33.2,0,66.4,0,99.6,0c0,49.8,0,99.7,0,149.5
	C-400.8,101.3-416,101.3-431.2,101.3z"/>
<path class="st1" d="M-374.5-85.9c-0.9-1.5-1.8-3-2.6-4.6c-1.5-3.3-1.4-6.8-0.1-10.2c1.5-4,3.3-7.8,5-11.7c1.7-3.7,3.4-7.3,4.1-11.3
	c0-0.1,0.1-0.1,0.3-0.3c0.3,0.3,0.6,0.5,0.7,0.8c2.5,4.6,5.2,9.1,7.3,13.9c1.9,4.1,2.9,8.6,2.4,13.3c-0.3,3.2-1.6,6-3.4,8.6
	c0.1,0,0.2,0.1,0.2,0.1c1.5-2.1,3.8-1.5,5.7-1.3c6.3,0.6,12.6,1.2,18.8,2.2c4.5,0.7,8.9,1.8,13,4c0.3,0.2,0.7,0.4,1,0.6
	c1.1,1,1.1,1.9-0.2,2.6c-1.3,0.7-2.7,1.5-4.2,2c-8,2.7-16.3,3.9-24.8,4.4c-5.8,0.3-11.6,0.7-17.5,0.7c-4.6,0.1-9.2,0-13.8-0.4
	c-6.2-0.6-12.4-1.5-18.5-2.5c-3.5-0.6-6.9-1.8-10.3-2.8c-1-0.3-2-0.9-2.9-1.4c-1.2-0.8-1.3-1.8-0.1-2.6c1.3-0.9,2.8-1.5,4.3-2.1
	c4.9-1.8,10.1-2.8,15.3-3.4c5.2-0.6,10.5-1,15.7-1.4c0.9-0.1,1.5,0.1,2.1,0.8c0.7,0.8,1.5,1.5,2.2,2.2
	C-374.6-85.8-374.6-85.8-374.5-85.9z M-370.3-89.8c0,3,0,6,0,9c0,1.1,0.5,1.8,1.5,2.2c0.9,0.4,1.7,0.1,2.2-0.5
	c0.4-0.5,0.7-1.4,0.7-2c0.1-3.6,0-7.2,0-10.8c0-2.2,0-4.5,0-6.7c0-1.7-1.1-2.7-2.5-2.5c-1.2,0.2-1.9,1.1-1.9,2.4
	C-370.4-95.7-370.3-92.8-370.3-89.8z"/>
<path d="M-437.4,13c0-3,0-5.9,0-8.9c0-1.3,0.7-2.2,1.9-2.4c1.4-0.2,2.5,0.8,2.5,2.5c0,2.2,0,4.5,0,6.7c0,3.6,0,7.2,0,10.8
	c0,0.7-0.3,1.5-0.7,2c-0.5,0.6-1.3,0.9-2.2,0.5c-1-0.4-1.5-1.2-1.5-2.2C-437.4,19-437.4,16-437.4,13z"/>
<g>
	<path class="st2" d="M72.4,32.4c9.5,6.6,12.2,15.8,10.9,28.9c23-7.9,21.1-27.2-8.4-57.8c-33.4,30.1-35,49.3-6.6,57.8
		C63.6,52.5,66,43.2,72.4,32.4L72.4,32.4z M43,82.8c0.3,0.3,0.6,0.6,1,0.8l0.3,0.2c2.3,1.5,5.9,2.5,8.7,3.2l0.2,0l0.3,0.1l0.2,0
		l0.3,0.1l0.3,0.1l0.3,0.1l0,0l0.5,0.1h0c12.8,2.4,30.9,2.5,43.5-0.9l0,0c2.4-0.6,4.8-1.4,6.9-2.7c0.1-0.1,0.2-0.1,0.2-0.2l0,0
		c0.4-0.3,0.7-0.5,1-0.8c0.7-0.7,1.1-1.4,1.1-2.2c0-4.6-13.9-8.3-31.3-8.5v6.5c0,1-0.8,1.7-1.7,1.7l0,0c-1,0-1.7-0.8-1.7-1.7v-6.5
		c-17.5,0.2-31.3,4-31.3,8.5C41.9,81.3,42.3,82.1,43,82.8L43,82.8z M76.7,68c24.5,0.3,44,6.8,44,14.8v48.9
		c0,8.2-20.5,14.8-45.7,14.8c-25.3,0-45.7-6.6-45.7-14.8V82.8c0-8,19.5-14.5,44-14.8V51.8c0-1,0.8-1.7,1.7-1.7l0,0
		c1,0,1.7,0.8,1.7,1.7V68z"/>
</g>
</svg>
